HIERARCHY
ROOT root
{
	OFFSET	0	13.1	24.9
	CHANNELS 6  Xposition Yposition Zposition Xrotation Yrotation Zrotation
	JOINT spine_1
	{
		OFFSET	0	9.99999	0
		CHANNELS 3  Xrotation Yrotation Zrotation
		JOINT spine_2
		{
			OFFSET	0	112	-10
			CHANNELS 3  Xrotation Yrotation Zrotation
			JOINT spine_3
			{
				OFFSET	0	206.5	19.3
				CHANNELS 3  Xrotation Yrotation Zrotation
				JOINT spine_4
				{
					OFFSET	0	110.4	14.6
					CHANNELS 3  Xrotation Yrotation Zrotation
					JOINT neck_1
					{
						OFFSET	0	71.8	-50.3
						CHANNELS 3  Xrotation Yrotation Zrotation
						JOINT neck_2
						{
							OFFSET	0	86.2	-25.8
							CHANNELS 3  Xrotation Yrotation Zrotation
							JOINT head_ee
							{
								OFFSET	0	179.8	-8.7
								CHANNELS 3  Xrotation Yrotation Zrotation
								End Site
								{
									OFFSET	1	0	0
								}
							}
						}
					}
					JOINT left_clavicle
					{
						OFFSET	-43.2	22.4	-70.8
						CHANNELS 3  Xrotation Yrotation Zrotation
						JOINT left_shoulder
						{
							OFFSET	-93.9	-5.79999	48.7
							CHANNELS 3  Xrotation Yrotation Zrotation
							JOINT left_elbow
							{
								OFFSET	-291.4	-30.8	15.2
								CHANNELS 3  Xrotation Yrotation Zrotation
								JOINT left_lowarm_twist
								{
									OFFSET	-110.7	-3.89999	13.6
									CHANNELS 3  Xrotation Yrotation Zrotation
									JOINT left_hand
									{
										OFFSET	-110.7	-3.89999	13.6
										CHANNELS 3  Xrotation Yrotation Zrotation
										JOINT left_ee
										{
											OFFSET	-80.8	-5.10001	12.1
											CHANNELS 3  Xrotation Yrotation Zrotation
											End Site
											{
												OFFSET	1	0	0
											}
										}
									}
								}
							}
						}
					}
					JOINT right_clavicle
					{
						OFFSET	43.2	22.4	-70.8
						CHANNELS 3  Xrotation Yrotation Zrotation
						JOINT right_shoulder
						{
							OFFSET	93.9	-5.79999	48.7
							CHANNELS 3  Xrotation Yrotation Zrotation
							JOINT right_elbow
							{
								OFFSET	291.4	-30.8	15.2
								CHANNELS 3  Xrotation Yrotation Zrotation
								JOINT right_lowarm_twist
								{
									OFFSET	110.7	-3.89999	13.6
									CHANNELS 3  Xrotation Yrotation Zrotation
									JOINT right_hand
									{
										OFFSET	110.7	-3.89999	13.6
										CHANNELS 3  Xrotation Yrotation Zrotation
										JOINT right_ee
										{
											OFFSET	80.8	-5.10001	12.1
											CHANNELS 3  Xrotation Yrotation Zrotation
											End Site
											{
												OFFSET	1	0	0
											}
										}
									}
								}
							}
						}
					}
				}
			}
		}
	}
	JOINT left_hip
	{
		OFFSET	-82.8	-127.5	0.300001
		CHANNELS 3  Xrotation Yrotation Zrotation
		JOINT left_knee
		{
			OFFSET	-28.2	-396.7	2.2
			CHANNELS 3  Xrotation Yrotation Zrotation
			JOINT left_ankle
			{
				OFFSET	-11.7	-411.3	35.4
				CHANNELS 3  Xrotation Yrotation Zrotation
				JOINT left_toes
				{
					OFFSET	0	-60	-88.6
					CHANNELS 3  Xrotation Yrotation Zrotation
					JOINT left_foot_ee
					{
						OFFSET	-22.5	-16.5	-42.2
						CHANNELS 3  Xrotation Yrotation Zrotation
						End Site
						{
							OFFSET	1	0	0
						}
					}
				}
			}
		}
	}
	JOINT right_hip
	{
		OFFSET	82.8	-127.5	0.300001
		CHANNELS 3  Xrotation Yrotation Zrotation
		JOINT right_knee
		{
			OFFSET	28.2	-396.7	2.2
			CHANNELS 3  Xrotation Yrotation Zrotation
			JOINT right_ankle
			{
				OFFSET	11.7	-411.3	35.4
				CHANNELS 3  Xrotation Yrotation Zrotation
				JOINT right_toes
				{
					OFFSET	0	-60	-88.6
					CHANNELS 3  Xrotation Yrotation Zrotation
					JOINT right_foot_ee
					{
						OFFSET	22.5	-16.5	-42.2
						CHANNELS 3  Xrotation Yrotation Zrotation
						End Site
						{
							OFFSET	1	0	0
						}
					}
				}
			}
		}
	}
}
MOTION
Frames: 15
Frame Time: 0.02
2809.52590601 692.979 -1626.49705897 25.7130067416 79.7374587605 -21.4786364911 -2.95738 -0.168277 0.0697747 -2.9574 -0.172376 0.0589253 -2.9576 -0.181772 0.0120168 -2.95756 -0.177593 0.0405736 -5.70777 7.17316 0.608509 -5.68555 12.7913 1.93148 -0.0 0.0 -0.0 3.18401 9.25762 6.64499 8.17133 -38.8098 59.024 1.2409 -31.578 0.350895 11.4207 0.260295 -1.43327 -0.615675 21.5294 5.01836 -0.0 0.0 -0.0 8.31214 19.4264 -15.6984 -18.8805 18.4701 -56.6612 1.1891 30.499 -0.324186 -17.0653 0.90315 -1.97835 -0.11821 4.30192 2.61846 0.0 0.0 0.0 1.17527 16.8278 -1.20365 -0.921481 0.0368443 0.136612 4.84044 -4.09563 -0.715768 6.1676 -0.0 -0.0 -0.0 0.0 -0.0 23.2237 13.4409 -9.1678 -66.547 2.94685 -9.20526 19.3002 -28.0681 2.82881 -5.93384 0.0 0.0 0.0 0.0 0.0 
2789.49792643 691.647 -1619.09303412 22.3308042865 77.240345796 -17.5398796333 -2.68556 -0.0654007 -0.0980253 -2.68556 -0.0590306 -0.101988 -2.68544 -0.0309838 -0.113694 -2.68546 -0.0485507 -0.107373 -3.88133 6.88545 0.276481 -3.83152 12.3704 1.36502 -0.0 0.0 -0.0 3.10953 8.70967 6.4884 8.9341 -39.3689 58.886 1.19686 -30.6622 0.328134 11.2543 0.258566 -1.41208 -0.805828 22.2792 4.21556 -0.0 0.0 -0.0 7.95455 19.8196 -14.8824 -19.742 18.187 -57.4134 0.996758 26.278 -0.232674 -16.7907 0.884039 -1.94884 -0.157377 3.17531 2.40182 0.0 0.0 0.0 -0.466141 17.9368 -0.984299 -1.10516 0.0439256 0.163911 2.62872 -2.52843 -0.389082 8.60451 -0.0 -0.0 -0.0 0.0 -0.0 22.5731 14.4969 -10.0423 -58.8355 2.07556 -8.3959 14.3856 -28.2097 2.14935 -8.3166 0.0 0.0 0.0 0.0 0.0 
2758.39802911 686.439 -1601.12783719 22.1962173603 76.1463153323 -18.4391978701 -2.52407 0.195723 0.0329377 -2.5241 0.193231 0.0453254 -2.52396 0.175475 0.0927425 -2.52392 0.187919 0.0638656 -3.33876 6.84574 0.804374 -3.2867 11.8475 1.85538 -0.0 0.0 -0.0 3.03984 8.45679 6.35296 9.36855 -39.4605 58.6747 1.16972 -30.0888 0.314406 9.97706 0.243249 -1.24966 -0.994781 20.695 2.43884 -0.0 0.0 -0.0 7.60738 20.1619 -14.0939 -19.1847 18.2741 -57.6093 0.869419 23.3006 -0.179265 -14.9711 0.761018 -1.75106 -0.588813 -1.28387 3.37946 0.0 0.0 0.0 -2.0934 19.2879 0.809883 -5.33946 0.182724 0.798782 3.38552 0.591047 -0.49561 9.78938 -0.0 -0.0 -0.0 0.0 -0.0 25.6403 12.5821 -10.5885 -53.2454 1.51641 -7.74058 7.8616 -28.7281 1.2031 -10.265 0.0 0.0 0.0 0.0 0.0 
2749.86811083 696.692 -1586.596404 20.8923524966 75.4786604293 -17.3789182146 -2.47035 0.249376 -0.189665 -2.47037 0.260939 -0.173412 -2.47122 0.296233 -0.102016 -2.47113 0.276404 -0.14752 -3.36599 7.52724 2.12678 -3.30844 12.0701 3.32825 -0.0 0.0 -0.0 2.85892 9.44815 6.08665 9.15493 -38.0441 58.0259 1.28383 -32.4538 0.373656 8.50352 0.221084 -1.06274 -1.37681 17.6475 -1.19251 -0.0 0.0 -0.0 7.34586 20.12 -13.5245 -19.2368 18.4828 -58.7721 0.783068 21.2016 -0.146561 -14.2462 0.713775 -1.6712 -1.13404 -7.13892 4.40433 0.0 0.0 0.0 -2.23016 21.2637 0.342012 -7.74097 0.240466 1.16277 4.50734 3.93254 -0.653697 9.77632 -0.0 -0.0 -0.0 0.0 -0.0 26.5299 12.5193 -8.39547 -50.561 1.27138 -7.40751 6.12638 -28.5579 0.941002 -11.571 0.0 0.0 0.0 0.0 0.0 
2697.589998 694.791 -1557.64807892 23.5220778857 76.9901127445 -21.7643070609 -2.21516 -0.0965961 -0.193766 -2.21514 -0.0840705 -0.19952 -2.21482 -0.0320074 -0.214129 -2.21487 -0.0654234 -0.206387 -3.86025 10.0671 4.37998 -3.7563 15.0477 6.07853 -0.0 0.0 -0.0 2.8616 11.3363 6.18737 10.4206 -35.4973 57.0144 1.6422 -39.1252 0.58359 5.07329 0.15092 -0.630246 -2.02577 12.2532 -7.77201 -0.0 0.0 -0.0 6.25787 18.4296 -11.2884 -20.7569 19.3396 -60.4455 0.638374 17.5487 -0.098534 -13.1573 0.644723 -1.55016 -1.92112 -17.7896 4.42685 0.0 0.0 0.0 -6.03455 24.7998 3.70641 -11.5083 0.300178 1.73767 10.9663 8.47114 -1.55358 9.62815 -0.0 -0.0 -0.0 0.0 -0.0 28.7644 13.9055 -5.70175 -34.3634 0.147641 -5.19339 -5.24233 -29.216 -0.82882 -17.0438 0.0 0.0 0.0 0.0 0.0 
2698.15683146 694.791 -1555.24127719 24.0295815373 77.2534915072 -22.2849042617 -2.21516 -0.0965961 -0.193766 -2.21514 -0.0840705 -0.19952 -2.21482 -0.0320074 -0.214129 -2.21487 -0.0654234 -0.206387 -3.86025 10.0671 4.37998 -3.7563 15.0477 6.07853 -0.0 0.0 -0.0 2.8616 11.3363 6.18737 10.4206 -35.4973 57.0144 1.6422 -39.1252 0.58359 5.07329 0.15092 -0.630246 -2.02577 12.2532 -7.77201 -0.0 0.0 -0.0 6.25787 18.4296 -11.2884 -20.7569 19.3396 -60.4455 0.638374 17.5487 -0.098534 -13.1573 0.644723 -1.55016 -1.92112 -17.7896 4.42685 0.0 0.0 0.0 -6.03455 24.7998 3.70641 -11.5083 0.300178 1.73767 10.9663 8.47114 -1.55358 9.62815 -0.0 -0.0 -0.0 0.0 -0.0 28.7644 13.9055 -5.70175 -34.3634 0.147641 -5.19339 -5.24233 -29.216 -0.82882 -17.0438 0.0 0.0 0.0 0.0 0.0 
2688.575097 697.425 -1545.71768355 22.0427819957 78.3259515398 -20.8093088317 -2.06194 -0.217673 -0.158804 -2.06195 -0.207127 -0.172333 -2.06131 -0.158548 -0.21786 -2.06132 -0.190965 -0.190086 -5.07487 10.9819 4.91416 -4.97513 16.538 6.89855 -0.0 0.0 -0.0 2.93323 11.7907 6.33052 11.3258 -34.8412 56.8696 1.76564 -41.1706 0.663188 4.02795 0.124402 -0.499348 -2.10847 10.5782 -9.12301 -0.0 0.0 -0.0 5.87804 18.6102 -10.4518 -21.2192 20.3773 -60.6262 0.63463 17.4521 -0.0974081 -12.1522 0.583042 -1.43729 -1.89992 -20.4401 3.01907 0.0 0.0 0.0 -5.69899 25.3832 3.86795 -10.4929 0.287807 1.58235 14.6543 8.9951 -2.04788 9.08465 -0.0 -0.0 -0.0 0.0 -0.0 28.4937 15.3716 -4.93188 -25.1411 -0.199305 -3.82212 -10.9472 -29.5551 -1.74867 -19.2481 0.0 0.0 0.0 0.0 0.0 
2679.20295801 695.84 -1545.6101661 16.9221272762 80.4172662629 -16.2247641274 -1.83563 -0.341228 -0.321561 -1.83563 -0.320075 -0.342622 -1.83362 -0.227927 -0.40974 -1.83374 -0.289777 -0.368602 -6.38802 10.7242 3.61572 -6.34556 17.242 5.70572 -0.0 0.0 -0.0 3.06202 12.9762 6.59838 12.2905 -33.6261 56.8946 2.02705 -45.1132 0.842052 1.67889 0.0561211 -0.207079 -1.86214 6.38964 -9.5315 -0.0 0.0 -0.0 5.76196 17.9582 -10.2528 -20.2901 21.739 -60.5559 0.663454 18.1935 -0.106231 -11.0732 0.51905 -1.31496 -1.90611 -24.8087 0.953343 0.0 0.0 0.0 -6.19177 25.7738 4.6412 -9.19728 0.268031 1.38454 18.8727 7.10876 -2.58999 7.72192 -0.0 -0.0 -0.0 0.0 -0.0 28.0706 17.2836 -5.41762 -14.0971 -0.319245 -2.13439 -16.5501 -29.8119 -2.66199 -21.6347 0.0 0.0 0.0 0.0 0.0 
2666.74552623 689.69 -1541.19600403 19.670199201 81.6929347406 -19.0711158115 -1.74765 -0.40323 -0.281665 -1.74769 -0.38449 -0.306753 -1.74557 -0.299696 -0.390016 -1.7456 -0.35753 -0.337791 -7.08744 10.8406 3.14489 -7.07307 17.9042 5.35534 -0.0 0.0 -0.0 3.18013 13.2846 6.80648 13.004 -33.0275 57.0185 2.23291 -47.8779 0.991405 0.000778363 2.74251e-05 -9.5623e-05 -1.68681 3.28606 -9.82022 -0.0 0.0 -0.0 5.56745 17.0631 -9.90336 -20.6985 22.7207 -60.464 0.682348 18.6761 -0.112205 -10.228 0.470546 -1.21833 -1.80179 -27.6731 -0.984473 0.0 0.0 0.0 -6.43847 26.1721 4.52375 -8.78987 0.260887 1.32243 20.8851 6.38596 -2.84001 6.70722 -0.0 -0.0 -0.0 0.0 -0.0 27.6872 18.1145 -5.2593 -6.15734 -0.204102 -0.922475 -20.2789 -28.8932 -3.2486 -23.3347 0.0 0.0 0.0 0.0 0.0 
2634.16344239 687.964 -1542.15016405 18.4817181443 82.7638591111 -18.1636536023 -1.62135 -0.456799 -0.221404 -1.62143 -0.441785 -0.250023 -1.61949 -0.369691 -0.347871 -1.61941 -0.419991 -0.285119 -7.37755 11.0296 2.49856 -7.38229 18.7606 4.79715 -0.0 0.0 -0.0 3.29661 13.4832 7.00627 14.2124 -32.2492 57.4795 2.51257 -51.2122 1.2043 -1.9898 -0.0743454 0.243203 -1.46719 -0.407799 -10.0317 -0.0 0.0 -0.0 5.25301 15.6986 -9.33256 -22.4415 23.5473 -60.4405 0.707879 19.3239 -0.120518 -9.01473 0.40343 -1.07839 -1.42738 -29.2159 -3.70766 0.0 0.0 0.0 -7.42272 26.0474 4.55037 -11.199 0.296701 1.69033 23.2548 4.99323 -3.12749 5.51061 -0.0 -0.0 -0.0 0.0 -0.0 27.822 19.3295 -6.2252 3.47908 0.158824 0.510112 -24.5435 -27.1637 -3.89351 -25.3846 0.0 0.0 0.0 0.0 0.0 
2608.47702525 680.299 -1541.2492989 22.0543622304 83.144324577 -21.9851622668 -1.62419 -0.370722 -0.229724 -1.62423 -0.355353 -0.252848 -1.62263 -0.285045 -0.330087 -1.62263 -0.333598 -0.280927 -7.22977 11.1626 2.41876 -7.2304 19.0461 4.72364 -0.0 0.0 -0.0 3.33313 13.5007 7.06717 14.4965 -31.9328 57.9719 2.59904 -52.1545 1.27214 -2.56606 -0.0974514 0.313147 -1.38533 -1.46927 -9.95423 -0.0 0.0 -0.0 5.50244 15.2856 -9.89671 -22.6979 23.9856 -60.8601 0.754107 20.4838 -0.136256 -8.49057 0.375357 -1.01751 -1.17894 -28.7372 -4.83512 0.0 0.0 0.0 -7.23484 25.587 2.28168 -11.7972 0.303194 1.78189 23.1523 4.5225 -3.11624 4.98549 -0.0 -0.0 -0.0 0.0 -0.0 27.9058 19.9773 -6.54118 6.25508 0.307636 0.909796 -25.2788 -26.0015 -3.98379 -26.1695 0.0 0.0 0.0 0.0 0.0 
2606.49010325 680.299 -1550.415393 19.4962488933 82.2819674719 -19.4063002916 -1.62419 -0.370722 -0.229724 -1.62423 -0.355353 -0.252848 -1.62263 -0.285045 -0.330087 -1.62263 -0.333598 -0.280927 -7.22977 11.1626 2.41876 -7.2304 19.0461 4.72364 -0.0 0.0 -0.0 3.33313 13.5007 7.06717 14.4965 -31.9328 57.9719 2.59904 -52.1545 1.27214 -2.56606 -0.0974514 0.313147 -1.38533 -1.46927 -9.95423 -0.0 0.0 -0.0 5.50244 15.2856 -9.89671 -22.6979 23.9856 -60.8601 0.754107 20.4838 -0.136256 -8.49057 0.375357 -1.01751 -1.17894 -28.7372 -4.83512 0.0 0.0 0.0 -7.23484 25.587 2.28168 -11.7972 0.303194 1.78189 23.1523 4.5225 -3.11624 4.98549 -0.0 -0.0 -0.0 0.0 -0.0 27.9058 19.9773 -6.54118 6.25508 0.307636 0.909796 -25.2788 -26.0015 -3.98379 -26.1695 0.0 0.0 0.0 0.0 0.0 
2596.21888296 682.673 -1555.05045653 23.2586738285 83.6303293013 -22.4896901072 -1.60556 -0.329163 -0.337623 -1.60555 -0.307012 -0.357884 -1.60354 -0.213258 -0.420546 -1.60368 -0.276998 -0.381588 -5.16435 11.4655 2.82625 -5.08573 19.0115 4.88143 -0.0 0.0 -0.0 3.02525 11.8496 6.48864 14.3847 -31.7902 57.6255 2.66322 -52.8291 1.32305 -2.99946 -0.115293 0.365598 -1.31327 -2.21349 -9.79718 -0.0 0.0 -0.0 5.57302 13.857 -10.1473 -23.1433 24.6691 -61.0292 0.79177 21.416 -0.149723 -7.53356 0.325544 -0.905708 -0.583356 -27.1203 -7.43348 0.0 0.0 0.0 -7.07832 25.7607 0.813181 -10.4621 0.28739 1.57765 20.2815 2.00092 -2.77646 4.77624 -0.0 -0.0 -0.0 0.0 -0.0 28.0581 20.5237 -7.33493 7.07439 0.35525 1.02636 -23.3506 -23.2062 -3.62879 -26.9287 0.0 0.0 0.0 0.0 0.0 
2509.74618623 668.312 -1531.10436543 178.049144692 88.1172871795 -176.856362186 -1.29215 -0.199633 -0.394673 -1.29208 -0.174114 -0.406576 -1.29074 -0.0749758 -0.435888 -1.29098 -0.142875 -0.418577 1.1931 10.8064 1.60935 1.44758 17.781 2.7078 -0.0 0.0 -0.0 3.10462 10.3863 6.55853 11.0744 -31.013 58.8279 3.71569 -61.4691 2.20974 -4.96713 -0.201272 0.601996 -1.17816 -4.97398 -10.0992 -0.0 0.0 -0.0 5.07365 9.62841 -9.36276 -24.6046 24.7098 -61.627 0.877145 23.4853 -0.182332 -3.25084 0.125823 -0.395959 0.773144 -24.3693 -14.2039 0.0 0.0 0.0 -9.42934 26.1432 -0.941384 -11.6271 0.301445 1.75585 20.8999 -3.73076 -2.89241 4.86658 -0.0 -0.0 -0.0 0.0 -0.0 30.1636 22.9059 -7.44 2.31749 0.102348 0.340858 -20.1799 -11.8738 -3.03856 -28.4372 0.0 0.0 0.0 0.0 0.0 
2508.43892817 668.312 -1537.5745395 177.234289381 88.6718476642 -176.041196445 -1.29215 -0.199633 -0.394673 -1.29208 -0.174114 -0.406576 -1.29074 -0.0749758 -0.435888 -1.29098 -0.142875 -0.418577 1.1931 10.8064 1.60935 1.44758 17.781 2.7078 -0.0 0.0 -0.0 3.10462 10.3863 6.55853 11.0744 -31.013 58.8279 3.71569 -61.4691 2.20974 -4.96713 -0.201272 0.601996 -1.17816 -4.97398 -10.0992 -0.0 0.0 -0.0 5.07365 9.62841 -9.36276 -24.6046 24.7098 -61.627 0.877145 23.4853 -0.182332 -3.25084 0.125823 -0.395959 0.773144 -24.3693 -14.2039 0.0 0.0 0.0 -9.42934 26.1432 -0.941384 -11.6271 0.301445 1.75585 20.8999 -3.73076 -2.89241 4.86658 -0.0 -0.0 -0.0 0.0 -0.0 30.1636 22.9059 -7.44 2.31749 0.102348 0.340858 -20.1799 -11.8738 -3.03856 -28.4372 0.0 0.0 0.0 0.0 0.0 
